<?xml version="1.0" encoding="UTF-8" standalone="no"?>
<svg
   width="30.046076"
   height="29.922091"
   class="looka-1j8o68f"
   viewBox="0 0 63.636154 63.373604"
   version="1.1"
   id="svg6"
   sodipodi:docname="ra-evaluator-favicon.svg"
   inkscape:version="1.3 (0e150ed, 2023-07-21)"
   xmlns:inkscape="http://www.inkscape.org/namespaces/inkscape"
   xmlns:sodipodi="http://sodipodi.sourceforge.net/DTD/sodipodi-0.dtd"
   xmlns="http://www.w3.org/2000/svg"
   xmlns:svg="http://www.w3.org/2000/svg">
  <defs
     id="defs6" />
  <sodipodi:namedview
     id="namedview6"
     pagecolor="#ffffff"
     bordercolor="#000000"
     borderopacity="0.25"
     inkscape:showpageshadow="2"
     inkscape:pageopacity="0.0"
     inkscape:pagecheckerboard="0"
     inkscape:deskcolor="#d1d1d1"
     inkscape:zoom="3.5022316"
     inkscape:cx="87.08733"
     inkscape:cy="14.990442"
     inkscape:window-width="1920"
     inkscape:window-height="1052"
     inkscape:window-x="1440"
     inkscape:window-y="28"
     inkscape:window-maximized="0"
     inkscape:current-layer="svg6" />
  <g
     fill="#e51065"
     transform="matrix(0.7078,0,0,0.7078,2.5863012,-3.560234)"
     id="g5">
    <path
       d="M 70.001,60.908 A 100,100 0 0 0 65.576,53.062 C 58.094,64.674 45.568,75.064 29.698,81.525 l 5.31,13.041 C 51.422,87.884 63.627,75.463 70,60.908 Z"
       id="path2" />
    <path
       d="M 37.526,76.81 A 98.621,98.621 0 0 0 43.82,73 C 29.858,66.308 16.937,52.331 9.386,33.785 l -13.04,5.308 c 7.806,19.178 23.447,32.625 41.18,37.717 z"
       id="path3" />
    <path
       d="M 58.449,18.07 53.139,5.03 C 34.461,12.634 21.226,27.673 15.846,44.833 a 94.775,94.775 0 0 0 4.114,6.202 C 26.908,37.637 40.555,25.355 58.449,18.07 Z"
       id="path4" />
    <path
       d="M 86.253,60.18 C 79.003,42.37 64.999,29.506 48.838,23.681 a 97.865,97.865 0 0 0 -6.728,4.321 c 12.665,7.217 24.155,20.421 31.102,37.486 l 13.04,-5.309 z"
       id="path5" />
    <circle
       cx="43.209999"
       cy="51.021"
       r="8.1110001"
       id="circle5" />
  </g>
</svg>
