<?xml version="1.0" encoding="UTF-8" standalone="no"?>
<svg
   width="217.11331"
   height="42.966015"
   viewBox="0 0 459.83563 91.000032"
   version="1.1"
   id="svg6"
   xmlns="http://www.w3.org/2000/svg">
  <defs
     id="defs6" />
  <path
     fill="#e51065"
     d="M 0,0 H 97 V 91 H 0 Z M 4,4 V 87 H 93 V 4 Z"
     id="path1" />
  <g
     fill="#e51065"
     transform="matrix(0.7078,0,0,0.7078,19.586,10.44)"
     id="g5">
    <path
       d="M 70.001,60.908 A 100,100 0 0 0 65.576,53.062 C 58.094,64.674 45.568,75.064 29.698,81.525 l 5.31,13.041 C 51.422,87.884 63.627,75.463 70,60.908 Z"
       id="path2" />
    <path
       d="M 37.526,76.81 A 98.621,98.621 0 0 0 43.82,73 C 29.858,66.308 16.937,52.331 9.386,33.785 l -13.04,5.308 c 7.806,19.178 23.447,32.625 41.18,37.717 z"
       id="path3" />
    <path
       d="M 58.449,18.07 53.139,5.03 C 34.461,12.634 21.226,27.673 15.846,44.833 a 94.775,94.775 0 0 0 4.114,6.202 C 26.908,37.637 40.555,25.355 58.449,18.07 Z"
       id="path4" />
    <path
       d="M 86.253,60.18 C 79.003,42.37 64.999,29.506 48.838,23.681 a 97.865,97.865 0 0 0 -6.728,4.321 c 12.665,7.217 24.155,20.421 31.102,37.486 l 13.04,-5.309 z"
       id="path5" />
    <circle
       cx="43.209999"
       cy="51.021"
       r="8.1110001"
       id="circle5" />
  </g>
  <path
     fill="#111111"
     d="M 102.81185,54.265484 V 17.012585 h 16.56183 q 3.97521,0 7.03235,1.63211 3.05715,1.632109 4.73924,4.586227 1.68209,2.954118 1.68209,6.726331 0,4.02621 -2.03911,7.185362 -2.03912,3.159149 -5.55428,4.637229 3.61819,4.58623 9.63149,12.48564 h -9.63149 q -3.26116,-4.07722 -8.91743,-11.61858 h -5.50429 v 11.61858 z m 16.56183,-18.600948 q 2.0891,0 3.77119,-1.502561 1.6821,-1.50256 1.6821,-4.204722 0,-2.191107 -1.17308,-4.077213 -1.17308,-1.886107 -4.28021,-1.885086 h -8.56143 v 11.669582 z m 36.33484,-19.822989 20.43401,38.423937 h -8.81543 l -2.95616,-5.70831 h -17.37687 l -2.85415,5.70831 h -8.86643 z m 4.79024,25.836287 -4.79024,-9.733487 -4.73924,9.733487 z m 18.39591,1.37608 v -6.930347 h 16.20481 v 6.930347 z m 31.18757,-10.751523 h 17.8359 v 7.031333 h -17.8359 v 7.94939 h 20.18002 v 6.98237 H 202.03085 V 17.012585 h 28.23141 v 6.982369 h -20.18002 v 8.306417 z m 22.0651,-5.96332 h 8.45943 l 6.52334,13.708703 6.52232,-13.708703 h 8.51043 l -15.03275,29.149473 z m 54.42575,25.123263 q -0.96906,1.32507 -3.33868,2.36962 -2.36962,1.04455 -5.17175,1.04455 -4.33223,0 -7.51688,-1.93609 -3.18465,-1.93609 -4.86573,-5.27376 -1.68107,-3.33766 -1.68311,-7.41589 -0.002,-4.078234 1.68311,-7.413858 1.68516,-3.335623 4.86573,-5.273753 3.18057,-1.93813 7.51688,-1.93813 2.90414,0 5.12075,0.994567 2.21661,0.994566 3.38968,2.522629 v -2.905155 h 7.54137 v 28.02842 h -7.54137 z m -1.7841,-16.943335 q -2.0891,-2.217628 -5.60527,-2.217628 -3.56718,0 -5.63078,2.216608 -2.0636,2.216609 -2.06462,5.732785 0,3.41519 2.1146,5.6573 2.11461,2.24211 5.57978,2.24211 3.5682,0 5.6318,-2.11461 2.06359,-2.1146 2.06359,-5.78378 0,-3.517196 -2.0891,-5.732785 z M 301.70785,15.73954 h 7.64337 v 38.525944 h -7.64337 z m 14.87974,27.161354 V 26.339071 h 7.69539 v 16.561823 q 0,3.00717 1.50358,4.30673 1.50358,1.29957 3.94869,1.29855 2.14112,0 3.82219,-1.65557 1.68108,-1.65557 1.52909,-5.68178 V 26.338051 h 7.64337 v 27.926413 h -7.64337 v -2.39512 q -1.37608,1.42605 -3.33767,2.2166 -1.96159,0.79056 -4.15372,0.78954 -11.00653,0 -11.00653,-11.97561 z m 54.83275,8.56144 q -0.96804,1.32507 -3.33766,2.36962 -2.36962,1.04455 -5.17175,1.04455 -4.33223,0 -7.5179,-1.93609 -3.18567,-1.93609 -4.86573,-5.27376 -1.68005,-3.33766 -1.68209,-7.41589 -0.002,-4.078234 1.68209,-7.413858 1.68414,-3.335623 4.86573,-5.273753 3.18159,-1.93813 7.5179,-1.93813 2.90414,0 5.12075,0.994567 2.2166,0.994566 3.38866,2.522629 v -2.905155 h 7.54239 v 28.02842 h -7.54239 z m -1.78308,-16.943335 q -2.0891,-2.217628 -5.60527,-2.217628 -3.56718,0 -5.63078,2.216608 -2.0636,2.216609 -2.06462,5.732785 0,3.41519 2.1146,5.6573 2.11461,2.24211 5.57978,2.24211 3.5682,0 5.63078,-2.11461 2.06257,-2.1146 2.06461,-5.78378 0,-3.517196 -2.0891,-5.732785 z m 26.29533,9.757975 q 0,1.7841 0.61204,2.98166 0.61204,1.19756 2.85313,1.19756 1.01905,0 1.93609,-0.10201 v 6.42031 q -1.83408,0.20401 -3.41417,0.20401 -3.26116,0 -5.27375,-0.53553 -2.0126,-0.53554 -3.13467,-2.0636 -1.12208,-1.52806 -1.12106,-4.38221 V 32.454381 h -3.41417 v -6.675328 h 3.41417 v -7.491382 h 7.54239 v 7.491382 h 5.60527 v 6.675328 h -5.60527 z m 17.70838,8.68894 q -3.49067,-1.96261 -5.52877,-5.32476 -2.03809,-3.36214 -2.03911,-7.33939 0,-3.92318 2.03809,-7.287366 2.0381,-3.364185 5.52877,-5.324757 3.49068,-1.960571 7.61992,-1.961591 4.12923,-0.001 7.64337,1.961591 3.51413,1.962612 5.57977,5.324757 2.06564,3.362146 2.06462,7.287366 0,3.97521 -2.06462,7.33837 -2.06462,3.36317 -5.57977,5.32476 -3.51516,1.96159 -7.64439,1.96261 -4.12924,10e-4 -7.61788,-1.96159 z m 3.7457,-19.517987 q -1.7841,1.04455 -2.80315,2.854152 -1.01905,1.809605 -1.02007,3.999685 0,2.29311 0.99457,4.10272 0.99456,1.8096 2.75214,2.85415 1.75758,1.04455 3.94869,1.04455 2.14112,0 3.8987,-1.04455 1.75757,-1.04455 2.77764,-2.87966 1.02007,-1.8351 1.01905,-4.07721 0,-2.1911 -1.02007,-3.999685 -1.02007,-1.808581 -2.77662,-2.854152 -1.75656,-1.04557 -3.8987,-1.04455 -2.0891,0 -3.87218,1.04455 z m 38.72893,0.102007 q -2.1911,0.535536 -4.02519,2.522629 -1.83408,1.987091 -1.8351,5.809291 v 12.38363 h -7.59339 v -28.02944 h 7.59339 v 3.720189 q 1.88509,-2.497127 4.61173,-3.388667 2.72664,-0.89154 4.96875,-0.840536 v 7.439359 q -1.52908,-0.153011 -3.72019,0.382525 z m -316.49152,32.46673 2.87149,10.23129 h 0.0326 l 2.92046,-10.23129 h 1.37097 l 2.92045,10.23129 h 0.0326 l 2.8715,-10.23129 h 1.10983 l -3.36112,11.53596 -0.0163,0.0163 h -1.30569 l -2.92045,-10.27923 h -0.0326 l -2.92046,10.27925 h -1.32201 l -3.36113,-11.55228 z m 24.82336,5.77563 q 0,2.20335 1.35466,3.63145 1.35465,1.42809 3.53963,1.45869 2.20335,0 3.54168,-1.44339 1.33833,-1.4434 1.35363,-3.64675 0,-2.23497 -1.33731,-3.64674 -1.33731,-1.41178 -3.5733,-1.4434 -2.18703,0 -3.52433,1.43524 -1.33731,1.43523 -1.35466,3.6549 z m 4.89531,-6.0694 q 1.76166,0 3.11631,0.77525 1.35465,0.77525 2.09624,2.16968 0.74159,1.39444 0.75893,3.12447 0,2.66034 -1.68005,4.34855 -1.68005,1.68822 -4.29143,1.72188 -2.62667,0 -4.2751,-1.70556 -1.64843,-1.70555 -1.6974,-4.36487 0.0163,-2.65932 1.66475,-4.33937 1.64843,-1.68005 4.30775,-1.73003 z m 20.53194,5.38392 q 1.25672,0 1.94221,-0.56206 0.68549,-0.56206 0.68549,-1.49338 0,-0.93132 -0.66917,-1.48522 -0.66916,-0.5539 -1.99117,-0.57124 h -2.3329 v 4.1119 h 2.36656 z m -0.32642,-5.09015 q 3.99867,0 4.03029,3.03471 0,2.56139 -2.9531,2.96942 l 3.36113,5.54815 h -1.22409 l -3.24483,-5.48287 h -2.00954 v 5.48287 h -1.07719 v -11.55228 z m 18.49384,10.57301 q 2.47978,0 3.91604,-1.25672 1.43626,-1.25672 1.45156,-3.45803 0,-2.35024 -1.4281,-3.60696 -1.42809,-1.25673 -3.98847,-1.27203 h -2.25231 v 9.59374 z m 0.22849,-10.57301 q 2.90414,0 4.54339,1.56581 1.63925,1.5658 1.67291,4.29143 0,1.59946 -0.72629,2.89699 -0.72629,1.29753 -2.08808,2.04728 -1.36179,0.74975 -3.33664,0.75077 h -3.67225 v -11.55228 z m 33.51027,10.57301 q 2.47979,0 3.91604,-1.25672 1.43626,-1.25672 1.45258,-3.45803 0,-2.35024 -1.4281,-3.60696 -1.42809,-1.25673 -3.98846,-1.27203 h -2.25231 v 9.59374 z m 0.2285,-10.57301 q 2.90413,0 4.5444,1.56581 1.64027,1.5658 1.67291,4.29143 0,1.59946 -0.72731,2.89699 -0.7273,1.29753 -2.08808,2.04728 -1.36077,0.74975 -3.33664,0.75077 h -3.67123 v -11.55228 z m 24.40003,0 v 0.97927 h -5.9878 v 4.11088 h 5.61242 v 0.97926 h -5.61344 v 4.5036 h 6.24996 v 0.97927 h -7.32613 v -11.55228 z m 18.23168,0 v 0.97927 h -5.84091 v 4.11088 h 5.43289 v 0.97926 h -5.43289 v 5.48287 h -1.07719 v -11.55228 z m 11.93378,0 v 11.55228 h -1.07719 v -11.55228 z m 13.25579,0 7.03236,10.11602 h 0.0326 v -10.11602 h 1.07617 v 11.55228 h -1.38729 l -7.0313,-10.11602 h -0.0326 v 10.11602 h -1.07719 v -11.55228 z m 21.08686,0 v 11.55228 h -1.07719 v -11.55228 z m 19.45576,0 v 0.97927 h -3.94766 v 10.57301 h -1.07821 v -10.57301 h -3.94767 v -0.97927 z m 11.5584,0 v 11.55228 h -1.07618 v -11.55228 z m 12.19491,5.77563 q 0,2.20335 1.35466,3.63145 1.35465,1.42809 3.53963,1.45869 2.20335,0 3.54168,-1.44339 1.33833,-1.4434 1.35465,-3.64675 0,-2.23497 -1.33833,-3.64674 -1.33833,-1.41178 -3.5733,-1.4434 -2.18702,0 -3.52433,1.43524 -1.33731,1.43523 -1.35466,3.6549 z m 4.89531,-6.0694 q 1.76166,0 3.11631,0.77525 1.35465,0.77525 2.09624,2.16968 0.74159,1.39444 0.75893,3.12447 0,2.66034 -1.68005,4.34855 -1.68005,1.68822 -4.29143,1.72188 -2.62667,0 -4.27408,-1.70556 -1.64741,-1.70555 -1.6974,-4.36487 0.0163,-2.65932 1.66373,-4.33937 1.64741,-1.68005 4.30775,-1.73003 z m 18.4765,0.29377 7.03235,10.11602 h 0.0326 v -10.11602 h 1.07719 v 11.55228 h -1.3873 l -7.0323,-10.11602 h -0.0326 v 10.11602 h -1.07719 v -11.55228 z m 23.30652,-0.29377 q 2.00648,0 3.14896,1.45257 l -0.93031,0.66815 q -0.84767,-1.14248 -2.25129,-1.14248 -1.14247,0 -1.85142,0.58858 -0.70895,0.58858 -0.74261,1.59845 0,0.88134 0.53859,1.42809 0.5386,0.54676 1.87591,0.92112 1.76268,0.52228 2.34922,0.92215 0.58654,0.39986 0.8895,0.98742 0.30296,0.58756 0.30194,1.4689 0,1.4026 -1.00375,2.30842 -1.00375,0.90582 -2.58587,0.93846 -2.49611,0 -3.75283,-1.74636 l 1.02822,-0.68548 q 0.86502,1.43625 2.643,1.45257 1.1588,0 1.87693,-0.64468 0.71813,-0.64468 0.71711,-1.62293 0,-0.57124 -0.20402,-0.93846 -0.20401,-0.36723 -0.61918,-0.63652 -0.41517,-0.2693 -1.06087,-0.48964 -0.6457,-0.22033 -1.5097,-0.51411 -1.30569,-0.42435 -1.93303,-1.19042 -0.62734,-0.76607 -0.62836,-1.95853 0,-1.4026 1.05271,-2.28496 1.05271,-0.88236 2.65115,-0.88031 z"
     id="path8"
     style="stroke-width:1.02007" />
</svg>
